<?xml version="1.0" standalone="no"?>
<!DOCTYPE svg PUBLIC "-//W3C//DTD SVG 20010904//EN"
 "http://www.w3.org/TR/2001/REC-SVG-20010904/DTD/svg10.dtd">
<svg version="1.0" xmlns="http://www.w3.org/2000/svg"
 width="300.000000pt" height="265.000000pt" viewBox="0 0 300.000000 265.000000"
 preserveAspectRatio="xMidYMid meet">
<metadata>
Created by potrace 1.16, written by Peter Selinger 2001-2019
</metadata>
<g transform="translate(0.000000,265.000000) scale(0.100000,-0.100000)"
fill="#000000" stroke="none">
<path d="M0 1325 l0 -1325 1500 0 1500 0 0 1325 0 1325 -1500 0 -1500 0 0
-1325z m127 -612 c-1 -335 -2 -61 -2 607 0 668 1 942 2 608 2 -335 2 -881 0
-1215z m2060 1810 c-379 -2 -995 -2 -1370 0 -375 1 -65 2 688 2 754 0 1060 -1
682 -2z m700 -1810 c-1 -335 -2 -61 -2 607 0 668 1 942 2 608 2 -335 2 -881 0
-1215z m-17 607 l0 -1190 -1365 0 -1365 0 0 1190 0 1190 1365 0 1365 0 0
-1190z m-683 -1207 c-379 -2 -995 -2 -1370 0 -375 1 -65 2 688 2 754 0 1060
-1 682 -2z"/>
<path d="M2135 2440 l490 -5 -495 -4 c-272 -2 -498 -3 -502 -2 -4 0 4 -32 18
-71 l24 -72 0 -966 c0 -838 -2 -973 -15 -1010 -8 -24 -13 -45 -11 -47 2 -2 11
17 20 43 14 42 16 151 16 1014 0 941 -1 968 -20 1025 -11 32 -20 63 -19 69 0
6 11 -20 25 -59 l24 -70 0 -993 c-1 -546 -4 -991 -9 -988 -4 3 -15 -17 -23
-44 l-16 -50 234 0 c129 0 234 4 234 8 0 5 -9 35 -20 67 -18 54 -20 84 -20
390 0 307 1 333 18 348 16 14 52 16 282 16 l263 0 99 98 98 98 0 505 0 506
-71 69 c-40 39 -68 64 -64 56 6 -10 4 -12 -4 -7 -6 4 -9 11 -6 16 3 4 -11 22
-30 39 l-36 31 -487 -2 -487 -3 490 -5z m-33 -402 c-8 -10 18 -12 129 -10 99
3 144 0 155 -8 19 -17 21 -548 2 -570 -11 -12 -10 -12 5 -1 15 12 17 38 17
290 0 208 -3 281 -12 291 -11 12 -10 12 5 1 15 -12 17 -38 17 -291 0 -251 -2
-278 -18 -293 -14 -13 -43 -16 -159 -16 -93 0 -145 4 -149 11 -5 7 -2 8 7 3
11 -6 12 -5 2 6 -10 10 -14 86 -15 293 l-3 281 -5 -290 -5 -290 -3 284 c-2
253 0 286 15 303 18 20 31 25 15 6z"/>
<path d="M940 2419 c0 -9 9 -42 20 -74 19 -56 20 -84 20 -885 0 -629 -3 -829
-12 -838 -8 -8 -56 -12 -151 -12 -108 0 -137 -3 -131 -12 6 -10 5 -10 -8 -1
-8 7 -17 10 -20 8 -3 -3 -6 86 -7 197 -2 180 0 211 19 269 11 37 17 74 14 83
-5 14 -34 16 -230 16 -143 0 -224 -4 -224 -10 0 -6 82 -10 225 -10 124 0 225
-3 225 -7 0 -5 -103 -7 -230 -6 -126 1 -230 1 -230 0 0 -1 9 -31 20 -65 18
-58 20 -92 20 -365 l0 -302 93 -94 c50 -52 84 -89 74 -82 -10 8 -17 9 -17 3 0
-6 10 -18 22 -26 19 -14 74 -16 393 -16 l370 0 102 102 103 103 0 941 0 940
25 74 c14 40 23 75 21 77 -2 2 -16 -31 -30 -74 l-26 -78 0 -940 0 -940 -98
-98 -98 -97 -374 3 -375 2 375 3 375 2 93 93 92 92 0 941 0 940 25 74 c14 40
25 75 25 77 0 2 -106 3 -235 3 -190 0 -235 -3 -235 -13 0 -8 9 -40 20 -72 19
-56 20 -84 20 -890 0 -781 -1 -833 -17 -846 -15 -11 -16 -11 -5 1 9 11 12 194
12 844 l0 831 -25 75 c-13 41 -24 68 -25 59z"/>
</g>
</svg>
